<?xml version="1.0" encoding="UTF-8"?>
<svg id="Group_1" xmlns="http://www.w3.org/2000/svg" xmlns:xlink="http://www.w3.org/1999/xlink" version="1.1" viewBox="0 0 1853.99 792.08">
  <!-- Generator: Adobe Illustrator 29.8.4, SVG Export Plug-In . SVG Version: 2.1.1 Build 6)  -->
  <defs>
    <style>
      .st0 {
        fill: url(#linear-gradient);
      }

      .st1 {
        fill: #2d2d2d;
        fill-rule: evenodd;
      }
    </style>
    <linearGradient id="linear-gradient" x1="33" y1="399.94" x2="348.39" y2="399.94" gradientTransform="translate(5.03 -3.57)" gradientUnits="userSpaceOnUse">
      <stop offset="0" stop-color="#c55384"/>
      <stop offset="1" stop-color="#ab44ab"/>
    </linearGradient>
  </defs>
  <g id="DIBRAND_copia">
    <path class="st0" d="M298.76,275.64v241.73h54.66v-241.73h-54.66ZM79.99,275.64l-41.96-.28v51l39.57.08c37.24,0,67.64,21.82,67.64,70.24s-30.4,69.9-67.64,69.9l-39.57.79v50h41.62c73.11,0,121.96-46.02,121.96-120.69s-48.85-121.04-121.62-121.04Z"/>
  </g>
  <g id="DIBRAND_copia_2">
    <path class="st1" d="M593.5,392.11c19.81-6.48,35.53-26.94,35.53-51.82,0-37.16-27.67-64.78-75.5-64.78h-90.53v241.73h97.7c45.78,0,75.84-28.98,75.84-68.53,0-31.37-21.18-51.48-43.04-56.6ZM515.61,320.17h28.7c21.18,0,31.77,10.23,31.77,25.91s-12.3,26.25-31.09,26.25h-29.38v-52.17ZM549.43,473.25h-33.82v-56.6h33.82c21.18,0,33.48,11.59,33.48,28.3s-12.64,28.3-33.48,28.3ZM916.7,351.19c0-42.96-30.75-75.69-78.57-75.69h-96v241.73h53.98v-90.01h19.13l43.39,90.01h59.44l-49.19-97.85c29.72-10.57,47.83-35.46,47.83-68.19ZM827.88,380.86h-31.77v-58.64h31.77c22.21,0,34.16,11.25,34.16,29.32,0,17.05-11.96,29.32-34.16,29.32ZM1093.01,275.5l-91.21,241.73h56.71l17.42-49.1h93.61l17.42,49.1h58.76l-90.19-241.73h-62.52ZM1093.69,419.04l29.72-83.53,29.04,83.53h-58.76ZM1500.26,422.45l-90.87-146.95h-65.59v241.73h53.63v-158.88l99.75,158.88h57.05v-241.73h-53.98v146.95ZM1694.34,278.77l-41.34-.28v51l38.95.08c37.24,0,67.64,21.82,67.64,70.24s-30.4,69.9-67.64,69.9l-38.95.79v50h41c73.11,0,121.96-46.02,121.96-120.69s-48.85-121.04-121.62-121.04Z"/>
  </g>
</svg>